<svg width="49" height="58" viewBox="0 0 49 58" fill="none" xmlns="http://www.w3.org/2000/svg">
<path d="M48.1951 49.1709C47.6361 48.5548 42.82 48.0244 39.8822 49.8577C39.4341 50.1388 39.5074 50.5278 40.0121 50.4757C41.6642 50.3026 45.3495 49.9099 46.0028 50.6544C46.6582 51.4007 45.272 54.483 44.6501 55.8566C44.4596 56.2736 44.8658 56.4411 45.2888 56.1284C48.0507 54.0847 48.7584 49.7926 48.1951 49.1709Z" fill="#FF8000"/>
<path d="M43.1249 51.7544C37.3708 53.9265 31.112 54.9725 25.4165 54.9725C16.9842 54.9725 8.81162 52.9195 2.20944 49.5022C1.63361 49.2007 1.20435 49.7274 1.68386 50.1127C7.80443 55.0283 15.8933 57.984 24.8784 57.984C31.29 57.984 38.7298 56.1916 43.8683 52.8265C44.7163 52.2681 43.9939 51.4305 43.1249 51.7544Z" fill="#FF8000"/>
<path d="M45.1638 40.1175C43.4371 37.9854 41.6092 36.2643 41.6092 32.3405V19.2655C41.6092 13.7362 42.0499 8.65001 37.4623 4.83539C33.8355 1.74644 27.839 0.661133 23.2369 0.661133C14.2639 0.661133 4.25048 3.63449 2.13365 13.4986C1.91691 14.5518 2.78387 15.1041 3.53524 15.2582L12.7106 16.1316C13.5486 16.0994 14.1772 15.3545 14.3433 14.5967C15.1164 11.1995 18.3386 9.56192 21.9365 9.56192C23.8727 9.56192 26.069 10.1977 27.2249 11.7454C28.5398 13.4665 28.3592 15.8297 28.3592 17.8205V18.8994C22.8973 19.4645 15.7449 19.8177 10.6154 21.8214C4.72009 24.0755 0.551453 28.7121 0.551453 35.5193C0.551453 44.2339 6.73577 48.5944 14.6757 48.5944C21.3946 48.5944 25.0647 47.188 30.2376 42.4936C31.9499 44.7027 32.5134 45.7816 35.6489 48.0935C36.3569 48.4274 37.2528 48.3889 37.8813 47.9008L37.9102 47.9137C39.7886 46.4366 43.2059 43.7715 45.1421 42.3459C45.9079 41.7679 45.7779 40.8688 45.1638 40.1175ZM28.3592 27.4342C28.3592 30.7029 28.4603 33.4258 26.5964 36.3285C25.1009 38.6918 22.724 40.1367 20.0653 40.1367C16.4457 40.1367 14.3433 37.69 14.3433 34.0616C14.3433 26.914 21.5463 25.6167 28.3592 25.6167V27.4342Z" fill="#FFFBF7"/>
</svg>
