<svg width="261" height="161" viewBox="0 0 261 161" fill="none" xmlns="http://www.w3.org/2000/svg">
<rect x="0.0857239" width="260.466" height="160.865" rx="15" fill="url(#paint0_linear_1_243)"/>
<g clip-path="url(#clip0_1_243)">
<path d="M108.539 60.2184C103.213 68.2871 106.599 80.5319 112.489 87.9564C115.429 91.6683 118.405 95.0002 122.482 95.0002C122.559 95.0002 122.636 94.9989 122.715 94.9962C124.63 94.9295 126.014 94.4147 127.353 93.9171C128.855 93.3581 130.409 92.7802 132.846 92.7802C135.165 92.7802 136.645 93.3394 138.076 93.88C139.486 94.4127 140.939 94.9638 143.086 94.9286C147.678 94.8539 150.497 91.2586 152.985 88.0868C155.581 84.7751 156.883 81.5596 157.322 80.3309L157.34 80.282C157.424 80.0636 157.306 79.8252 157.066 79.7291C157.059 79.7264 157.035 79.7176 157.028 79.7151C156.219 79.4264 149.126 76.6791 149.051 69.1911C148.982 63.1076 154.373 59.886 155.454 59.3021L155.504 59.2747C155.621 59.2089 155.703 59.1045 155.731 58.9851C155.758 58.8659 155.729 58.7418 155.651 58.6416C151.93 53.8878 146.227 53.1713 143.931 53.0851C143.598 53.0561 143.254 53.0415 142.908 53.0415C140.211 53.0415 137.628 53.9307 135.553 54.6452C134.12 55.1384 132.882 55.5643 132.029 55.5643C131.07 55.5643 129.825 55.1331 128.384 54.634C126.457 53.9662 124.273 53.2096 121.96 53.2096C121.905 53.2096 121.851 53.2101 121.797 53.211C116.421 53.2801 111.34 55.9655 108.539 60.2184Z" fill="#FEFAF6"/>
<path d="M143.934 40.0005C140.678 40.1162 136.772 41.866 134.437 44.2531C132.453 46.2596 130.515 49.6051 131.026 52.9772C131.058 53.1882 131.255 53.351 131.498 53.3675C131.717 53.3824 131.942 53.39 132.165 53.3902C135.349 53.3902 138.783 51.8525 141.129 49.3766C143.597 46.7622 144.846 43.407 144.468 40.4017C144.438 40.1662 144.201 39.9913 143.934 40.0005Z" fill="#FEFAF6"/>
</g>
<g clip-path="url(#clip1_1_243)">
<path d="M237.753 12.3086C236.802 13.6289 237.407 15.6326 238.458 16.8475C238.983 17.4549 239.515 18.0001 240.243 18.0001C240.257 18.0001 240.27 17.9999 240.284 17.9995C240.627 17.9886 240.874 17.9043 241.113 17.8229C241.381 17.7314 241.658 17.6368 242.094 17.6368C242.508 17.6368 242.772 17.7284 243.028 17.8168C243.279 17.904 243.539 17.9942 243.922 17.9884C244.742 17.9762 245.246 17.3879 245.69 16.8688C246.153 16.3269 246.386 15.8008 246.464 15.5997L246.468 15.5917C246.483 15.556 246.461 15.5169 246.419 15.5012C246.417 15.5008 246.413 15.4993 246.412 15.4989C246.267 15.4517 245.001 15.0021 244.987 13.7768C244.975 12.7813 245.938 12.2542 246.131 12.1586L246.14 12.1541C246.161 12.1434 246.175 12.1263 246.18 12.1067C246.185 12.0872 246.18 12.0669 246.166 12.0505C245.501 11.2726 244.483 11.1554 244.073 11.1413C244.014 11.1365 243.952 11.1342 243.89 11.1342C243.409 11.1342 242.948 11.2797 242.577 11.3966C242.321 11.4773 242.1 11.547 241.948 11.547C241.776 11.547 241.554 11.4764 241.297 11.3947C240.953 11.2855 240.563 11.1617 240.15 11.1617C240.14 11.1617 240.13 11.1617 240.121 11.1619C239.161 11.1732 238.253 11.6126 237.753 12.3086Z" fill="#FEFAF6"/>
<path d="M244.074 9.00018C243.493 9.01912 242.795 9.30544 242.378 9.69607C242.024 10.0244 241.678 10.5718 241.769 11.1236C241.775 11.1582 241.81 11.1848 241.853 11.1875C241.893 11.19 241.933 11.1912 241.973 11.1912C242.541 11.1912 243.154 10.9396 243.573 10.5345C244.014 10.1066 244.237 9.55762 244.17 9.06583C244.164 9.0273 244.122 8.99867 244.074 9.00018Z" fill="#FEFAF6"/>
</g>
<path d="M53.8013 120.52H48.3293L47.3213 123H45.5933L50.1293 111.912H52.0193L56.5373 123H54.8093L53.8013 120.52ZM53.3333 119.336L51.0653 113.704L48.7973 119.336H53.3333Z" fill="white"/>
<path d="M60.1522 115.848C60.4762 115.347 60.9562 114.931 61.5922 114.6C62.2402 114.259 62.9902 114.088 63.8422 114.088C64.7182 114.088 65.5102 114.275 66.2182 114.648C66.9382 115.022 67.5022 115.55 67.9102 116.232C68.3182 116.904 68.5222 117.688 68.5222 118.584C68.5222 119.47 68.3182 120.259 67.9102 120.952C67.5022 121.646 66.9382 122.184 66.2182 122.568C65.5102 122.952 64.7182 123.144 63.8422 123.144C63.0022 123.144 62.2582 122.979 61.6102 122.648C60.9742 122.307 60.4882 121.886 60.1522 121.384V127.16H58.5142V114.232H60.1522V115.848ZM66.8482 118.584C66.8482 117.923 66.6982 117.347 66.3982 116.856C66.0982 116.366 65.6902 115.992 65.1742 115.736C64.6702 115.48 64.1122 115.352 63.5002 115.352C62.9002 115.352 62.3422 115.486 61.8262 115.752C61.3222 116.008 60.9142 116.387 60.6022 116.888C60.3022 117.379 60.1522 117.95 60.1522 118.6C60.1522 119.262 60.3022 119.843 60.6022 120.344C60.9142 120.835 61.3222 121.214 61.8262 121.48C62.3422 121.736 62.9002 121.864 63.5002 121.864C64.1122 121.864 64.6702 121.736 65.1742 121.48C65.6902 121.214 66.0982 120.835 66.3982 120.344C66.6982 119.843 66.8482 119.256 66.8482 118.584Z" fill="white"/>
<path d="M72.3163 115.848C72.6403 115.347 73.1203 114.931 73.7563 114.6C74.4043 114.259 75.1543 114.088 76.0063 114.088C76.8823 114.088 77.6743 114.275 78.3823 114.648C79.1023 115.022 79.6663 115.55 80.0743 116.232C80.4823 116.904 80.6863 117.688 80.6863 118.584C80.6863 119.47 80.4823 120.259 80.0743 120.952C79.6663 121.646 79.1023 122.184 78.3823 122.568C77.6743 122.952 76.8823 123.144 76.0063 123.144C75.1663 123.144 74.4223 122.979 73.7743 122.648C73.1383 122.307 72.6523 121.886 72.3163 121.384V127.16H70.6783V114.232H72.3163V115.848ZM79.0123 118.584C79.0123 117.923 78.8623 117.347 78.5623 116.856C78.2623 116.366 77.8543 115.992 77.3383 115.736C76.8343 115.48 76.2763 115.352 75.6643 115.352C75.0643 115.352 74.5063 115.486 73.9903 115.752C73.4863 116.008 73.0783 116.387 72.7663 116.888C72.4663 117.379 72.3163 117.95 72.3163 118.6C72.3163 119.262 72.4663 119.843 72.7663 120.344C73.0783 120.835 73.4863 121.214 73.9903 121.48C74.5063 121.736 75.0643 121.864 75.6643 121.864C76.2763 121.864 76.8343 121.736 77.3383 121.48C77.8543 121.214 78.2623 120.835 78.5623 120.344C78.8623 119.843 79.0123 119.256 79.0123 118.584Z" fill="white"/>
<path d="M91.6192 123.112C90.7912 123.112 90.0472 122.984 89.3872 122.728C88.7392 122.462 88.2292 122.099 87.8572 121.64C87.4852 121.171 87.2932 120.632 87.2812 120.024H89.0272C89.0872 120.547 89.3272 120.99 89.7472 121.352C90.1792 121.704 90.8032 121.88 91.6192 121.88C92.3992 121.88 93.0112 121.71 93.4552 121.368C93.9112 121.016 94.1392 120.568 94.1392 120.024C94.1392 119.598 94.0071 119.251 93.7431 118.984C93.4791 118.718 93.1492 118.515 92.7532 118.376C92.3572 118.238 91.8232 118.088 91.1512 117.928C90.3232 117.736 89.6572 117.544 89.1532 117.352C88.6612 117.16 88.2352 116.862 87.8752 116.456C87.5272 116.04 87.3532 115.486 87.3532 114.792C87.3532 114.184 87.5272 113.646 87.8752 113.176C88.2232 112.707 88.7092 112.344 89.3332 112.088C89.9692 111.832 90.6952 111.704 91.5112 111.704C92.6872 111.704 93.6471 111.966 94.3911 112.488C95.1472 113.011 95.5732 113.704 95.6692 114.568H93.8692C93.8092 114.142 93.5572 113.768 93.1132 113.448C92.6692 113.118 92.0812 112.952 91.3492 112.952C90.6652 112.952 90.1072 113.112 89.6752 113.432C89.2432 113.742 89.0272 114.179 89.0272 114.744C89.0272 115.15 89.1532 115.48 89.4052 115.736C89.6692 115.992 89.9872 116.19 90.3592 116.328C90.7432 116.456 91.2772 116.606 91.9612 116.776C92.7892 116.979 93.4552 117.182 93.9592 117.384C94.4632 117.576 94.8952 117.88 95.2552 118.296C95.6152 118.702 95.7952 119.256 95.7952 119.96C95.7952 120.504 95.6332 121.016 95.3092 121.496C94.9852 121.976 94.5052 122.366 93.8692 122.664C93.2332 122.963 92.4832 123.112 91.6192 123.112Z" fill="white"/>
<path d="M100.204 115.432V120.6C100.204 121.027 100.306 121.331 100.51 121.512C100.714 121.683 101.068 121.768 101.572 121.768H102.778V123H101.302C100.39 123 99.7056 122.814 99.2496 122.44C98.7936 122.067 98.5656 121.454 98.5656 120.6V115.432H97.2876V114.232H98.5656V112.024H100.204V114.232H102.778V115.432H100.204Z" fill="white"/>
<path d="M109.064 123.144C108.14 123.144 107.3 122.958 106.544 122.584C105.8 122.211 105.212 121.683 104.78 121C104.36 120.307 104.15 119.507 104.15 118.6C104.15 117.704 104.366 116.915 104.798 116.232C105.242 115.539 105.842 115.011 106.598 114.648C107.354 114.275 108.2 114.088 109.136 114.088C110.072 114.088 110.918 114.275 111.674 114.648C112.43 115.011 113.024 115.534 113.456 116.216C113.9 116.899 114.122 117.694 114.122 118.6C114.122 119.507 113.894 120.307 113.438 121C112.994 121.683 112.388 122.211 111.62 122.584C110.852 122.958 110 123.144 109.064 123.144ZM109.064 121.864C109.652 121.864 110.204 121.742 110.72 121.496C111.236 121.251 111.65 120.883 111.962 120.392C112.286 119.902 112.448 119.304 112.448 118.6C112.448 117.896 112.292 117.299 111.98 116.808C111.668 116.318 111.26 115.955 110.756 115.72C110.252 115.475 109.706 115.352 109.118 115.352C108.518 115.352 107.966 115.475 107.462 115.72C106.97 115.955 106.574 116.318 106.274 116.808C105.974 117.299 105.824 117.896 105.824 118.6C105.824 119.315 105.968 119.918 106.256 120.408C106.556 120.899 106.952 121.267 107.444 121.512C107.936 121.747 108.476 121.864 109.064 121.864Z" fill="white"/>
<path d="M117.914 115.656C118.202 115.155 118.61 114.766 119.138 114.488C119.678 114.211 120.332 114.072 121.1 114.072V115.576H120.668C118.832 115.576 117.914 116.462 117.914 118.232V123H116.276V114.232H117.914V115.656Z" fill="white"/>
<path d="M131.991 118.28C131.991 118.558 131.973 118.851 131.937 119.16H124.053C124.113 120.024 124.443 120.702 125.043 121.192C125.655 121.672 126.393 121.912 127.257 121.912C127.965 121.912 128.553 121.768 129.021 121.48C129.501 121.182 129.837 120.787 130.029 120.296H131.793C131.529 121.139 131.001 121.827 130.209 122.36C129.417 122.883 128.433 123.144 127.257 123.144C126.321 123.144 125.481 122.958 124.737 122.584C124.005 122.211 123.429 121.683 123.009 121C122.589 120.307 122.379 119.507 122.379 118.6C122.379 117.694 122.583 116.899 122.991 116.216C123.399 115.534 123.969 115.011 124.701 114.648C125.445 114.275 126.297 114.088 127.257 114.088C128.193 114.088 129.021 114.27 129.741 114.632C130.461 114.995 131.013 115.496 131.397 116.136C131.793 116.766 131.991 117.48 131.991 118.28ZM130.299 117.976C130.299 117.422 130.161 116.947 129.885 116.552C129.609 116.147 129.231 115.843 128.751 115.64C128.283 115.427 127.761 115.32 127.185 115.32C126.357 115.32 125.649 115.555 125.061 116.024C124.485 116.494 124.155 117.144 124.071 117.976H130.299Z" fill="white"/>
<path d="M148.582 123L146.944 121.528C146.332 122.094 145.678 122.515 144.982 122.792C144.286 123.059 143.5 123.192 142.624 123.192C141.76 123.192 140.992 123.054 140.32 122.776C139.66 122.499 139.144 122.104 138.772 121.592C138.412 121.08 138.232 120.483 138.232 119.8C138.232 119.022 138.478 118.339 138.97 117.752C139.474 117.155 140.212 116.686 141.184 116.344C140.8 115.939 140.524 115.566 140.356 115.224C140.188 114.883 140.104 114.51 140.104 114.104C140.104 113.635 140.236 113.214 140.5 112.84C140.776 112.456 141.166 112.158 141.67 111.944C142.174 111.731 142.756 111.624 143.416 111.624C144.064 111.624 144.628 111.736 145.108 111.96C145.588 112.184 145.948 112.499 146.188 112.904C146.428 113.299 146.536 113.742 146.512 114.232H144.874C144.886 113.795 144.748 113.454 144.46 113.208C144.172 112.952 143.8 112.824 143.344 112.824C142.864 112.824 142.474 112.947 142.174 113.192C141.886 113.427 141.742 113.731 141.742 114.104C141.742 114.424 141.838 114.734 142.03 115.032C142.234 115.331 142.57 115.699 143.038 116.136L146.782 119.48L147.106 119.032L148.33 117.208H150.094L148.618 119.48C148.414 119.8 148.174 120.136 147.898 120.488L150.724 123H148.582ZM142.624 121.944C143.272 121.944 143.854 121.832 144.37 121.608C144.898 121.384 145.396 121.038 145.864 120.568L142.174 117.272C140.638 117.795 139.87 118.622 139.87 119.752C139.87 120.382 140.122 120.904 140.626 121.32C141.142 121.736 141.808 121.944 142.624 121.944Z" fill="white"/>
<path d="M157.903 112.808C157.591 112.808 157.327 112.712 157.111 112.52C156.895 112.328 156.787 112.094 156.787 111.816C156.787 111.539 156.895 111.304 157.111 111.112C157.327 110.92 157.591 110.824 157.903 110.824C158.203 110.824 158.455 110.92 158.659 111.112C158.875 111.304 158.983 111.539 158.983 111.816C158.983 112.094 158.875 112.328 158.659 112.52C158.455 112.712 158.203 112.808 157.903 112.808ZM158.695 114.232V123H157.057V114.232H158.695Z" fill="white"/>
<path d="M169.209 111.848V113.032H165.789V123H164.151V113.032H160.713V111.848H169.209Z" fill="white"/>
<path d="M179.973 114.232V123H178.335V121.704C178.023 122.152 177.585 122.504 177.021 122.76C176.469 123.006 175.857 123.128 175.185 123.128C174.417 123.128 173.727 122.99 173.115 122.712C172.503 122.424 172.017 121.998 171.657 121.432C171.309 120.867 171.135 120.179 171.135 119.368V114.232H172.755V119.176C172.755 120.04 173.001 120.707 173.493 121.176C173.985 121.635 174.657 121.864 175.509 121.864C176.385 121.864 177.075 121.624 177.579 121.144C178.083 120.664 178.335 119.966 178.335 119.048V114.232H179.973Z" fill="white"/>
<path d="M187.545 114.072C188.745 114.072 189.717 114.398 190.461 115.048C191.205 115.688 191.577 116.616 191.577 117.832V123H189.957V118.04C189.957 117.166 189.711 116.499 189.219 116.04C188.727 115.571 188.055 115.336 187.203 115.336C186.339 115.336 185.649 115.576 185.133 116.056C184.629 116.536 184.377 117.235 184.377 118.152V123H182.739V114.232H184.377V115.48C184.701 115.032 185.139 114.686 185.691 114.44C186.255 114.195 186.873 114.072 187.545 114.072Z" fill="white"/>
<path d="M203.252 118.28C203.252 118.558 203.234 118.851 203.198 119.16H195.314C195.374 120.024 195.704 120.702 196.304 121.192C196.916 121.672 197.654 121.912 198.518 121.912C199.226 121.912 199.814 121.768 200.282 121.48C200.762 121.182 201.098 120.787 201.29 120.296H203.054C202.79 121.139 202.262 121.827 201.47 122.36C200.678 122.883 199.694 123.144 198.518 123.144C197.582 123.144 196.742 122.958 195.998 122.584C195.266 122.211 194.69 121.683 194.27 121C193.85 120.307 193.64 119.507 193.64 118.6C193.64 117.694 193.844 116.899 194.252 116.216C194.66 115.534 195.23 115.011 195.962 114.648C196.706 114.275 197.558 114.088 198.518 114.088C199.454 114.088 200.282 114.27 201.002 114.632C201.722 114.995 202.274 115.496 202.658 116.136C203.054 116.766 203.252 117.48 203.252 118.28ZM201.56 117.976C201.56 117.422 201.422 116.947 201.146 116.552C200.87 116.147 200.492 115.843 200.012 115.64C199.544 115.427 199.022 115.32 198.446 115.32C197.618 115.32 196.91 115.555 196.322 116.024C195.746 116.494 195.416 117.144 195.332 117.976H201.56Z" fill="white"/>
<path d="M208.907 123.144C208.151 123.144 207.473 123.032 206.873 122.808C206.273 122.574 205.799 122.254 205.451 121.848C205.103 121.432 204.911 120.958 204.875 120.424H206.567C206.615 120.862 206.843 121.219 207.251 121.496C207.671 121.774 208.217 121.912 208.889 121.912C209.513 121.912 210.005 121.79 210.365 121.544C210.725 121.299 210.905 120.99 210.905 120.616C210.905 120.232 210.713 119.95 210.329 119.768C209.945 119.576 209.351 119.39 208.547 119.208C207.815 119.038 207.215 118.867 206.747 118.696C206.291 118.515 205.895 118.254 205.559 117.912C205.235 117.56 205.073 117.102 205.073 116.536C205.073 116.088 205.223 115.678 205.523 115.304C205.823 114.931 206.249 114.638 206.801 114.424C207.353 114.2 207.983 114.088 208.691 114.088C209.783 114.088 210.665 114.334 211.337 114.824C212.009 115.315 212.369 115.987 212.417 116.84H210.779C210.743 116.382 210.533 116.014 210.149 115.736C209.777 115.459 209.273 115.32 208.637 115.32C208.049 115.32 207.581 115.432 207.233 115.656C206.885 115.88 206.711 116.174 206.711 116.536C206.711 116.824 206.813 117.064 207.017 117.256C207.233 117.438 207.497 117.587 207.809 117.704C208.133 117.811 208.577 117.934 209.141 118.072C209.849 118.243 210.425 118.414 210.869 118.584C211.313 118.744 211.691 118.99 212.003 119.32C212.327 119.651 212.495 120.083 212.507 120.616C212.507 121.096 212.357 121.528 212.057 121.912C211.757 122.296 211.331 122.6 210.779 122.824C210.239 123.038 209.615 123.144 208.907 123.144Z" fill="white"/>
<defs>
<linearGradient id="paint0_linear_1_243" x1="154.436" y1="-38.9975" x2="249.396" y2="185.864" gradientUnits="userSpaceOnUse">
<stop stop-color="#00E0FF"/>
<stop offset="1" stop-color="#0047FF"/>
</linearGradient>
<clipPath id="clip0_1_243">
<rect width="63" height="55" fill="white" transform="translate(100.125 40)"/>
</clipPath>
<clipPath id="clip1_1_243">
<rect width="11.25" height="9" fill="white" transform="translate(236.25 9)"/>
</clipPath>
</defs>
</svg>
