<svg width="261" height="162" viewBox="0 0 261 162" fill="none" xmlns="http://www.w3.org/2000/svg">
<rect x="0.0857239" y="0.327148" width="260.466" height="160.865" rx="15" fill="url(#paint0_linear_1_287)"/>
<path d="M106.326 119.996C106.326 121.862 105.804 123.329 104.761 124.397C103.723 125.466 102.278 126 100.426 126C98.5327 126 97.0703 125.476 96.0386 124.429C95.0129 123.377 94.5 121.894 94.5 119.98C94.5 118.082 95.0158 116.613 96.0474 115.571C97.0791 114.524 98.5444 114 100.444 114C102.29 114 103.732 114.532 104.769 115.595C105.807 116.658 106.326 118.125 106.326 119.996ZM96.0826 119.996C96.0826 121.575 96.4519 122.773 97.1904 123.592C97.9349 124.405 99.0134 124.812 100.426 124.812C101.85 124.812 102.926 124.405 103.653 123.592C104.38 122.779 104.743 121.58 104.743 119.996C104.743 118.428 104.38 117.24 103.653 116.432C102.932 115.619 101.862 115.212 100.444 115.212C99.0192 115.212 97.9349 115.621 97.1904 116.44C96.4519 117.253 96.0826 118.439 96.0826 119.996Z" fill="white"/>
<path d="M114.283 125.841H112.788V115.387H108.717V114.183H118.353V115.387H114.283V125.841Z" fill="white"/>
<path d="M131.181 125.841H129.687V120.355H122.917V125.841H121.422V114.183H122.917V119.143H129.687V114.183H131.181V125.841Z" fill="white"/>
<path d="M143.007 125.841H135.841V114.183H143.007V115.387H137.336V119.143H142.664V120.339H137.336V124.629H143.007V125.841Z" fill="white"/>
<path d="M148.485 120.993V125.841H146.99V114.183H150.516C152.092 114.183 153.256 114.457 154.006 115.005C154.762 115.552 155.14 116.376 155.14 117.476C155.14 119.018 154.279 120.06 152.555 120.602L156.046 125.841H154.279L151.166 120.993H148.485ZM148.485 119.829H150.533C151.588 119.829 152.362 119.64 152.854 119.262C153.347 118.88 153.593 118.308 153.593 117.548C153.593 116.777 153.341 116.222 152.837 115.882C152.339 115.542 151.536 115.371 150.428 115.371H148.485V119.829Z" fill="white"/>
<path d="M166.5 122.739C166.5 123.765 166.09 124.565 165.269 125.139C164.448 125.713 163.335 126 161.928 126C160.404 126 159.232 125.822 158.411 125.466V124.158C158.939 124.36 159.513 124.52 160.134 124.637C160.756 124.753 161.371 124.812 161.981 124.812C162.977 124.812 163.727 124.642 164.232 124.302C164.736 123.956 164.988 123.478 164.988 122.866C164.988 122.462 164.897 122.133 164.715 121.878C164.539 121.617 164.24 121.378 163.818 121.16C163.402 120.942 162.766 120.695 161.91 120.419C160.715 120.031 159.859 119.571 159.343 119.039C158.833 118.508 158.578 117.814 158.578 116.958C158.578 116.06 158.95 115.345 159.695 114.813C160.439 114.282 161.424 114.016 162.649 114.016C163.927 114.016 165.102 114.229 166.175 114.654L165.709 115.834C164.648 115.43 163.616 115.228 162.614 115.228C161.823 115.228 161.204 115.382 160.759 115.69C160.313 115.999 160.09 116.427 160.09 116.974C160.09 117.378 160.172 117.71 160.337 117.971C160.501 118.226 160.776 118.462 161.163 118.68C161.556 118.893 162.154 119.13 162.957 119.39C164.305 119.826 165.231 120.294 165.735 120.793C166.245 121.293 166.5 121.942 166.5 122.739Z" fill="white"/>
<path d="M164.657 60.7456C165.47 60.7456 166.13 60.1601 166.13 59.4373L166.13 53.3345C166.13 52.0953 165 51.0904 163.606 51.0904L98.9386 51.0862C97.544 51.0862 96.414 52.0911 96.4134 53.3303V59.4326C96.4134 60.1553 97.0722 60.7413 97.8853 60.7418C98.699 60.7418 99.3577 61.3278 99.3577 62.0506L99.3566 74.0772C99.3566 74.8 98.6974 75.386 97.8842 75.386C97.0711 75.386 96.4118 75.972 96.4118 76.6947L96.4113 82.7975C96.4113 84.0367 97.5418 85.0411 98.9359 85.0416L163.603 85.0454C164.998 85.0454 166.128 84.041 166.128 82.8018L166.129 76.699C166.129 75.9762 165.469 75.3902 164.656 75.3902C163.843 75.3902 163.184 74.8042 163.184 74.081L163.185 62.0544C163.185 61.3316 163.844 60.7456 164.657 60.7456V60.7456Z" fill="url(#paint1_linear_1_287)"/>
<path d="M96.4118 77.1213L96.4113 82.7976C96.4113 84.0368 97.5413 85.0412 98.9354 85.0417L163.603 85.0455C164.998 85.0455 166.128 84.0411 166.128 82.8019L166.128 77.1218H96.4118V77.1213Z" fill="url(#paint2_linear_1_287)"/>
<path d="M99.2474 68.4465L103.883 72.5669V68.4465H99.2474Z" fill="url(#paint3_linear_1_287)"/>
<path d="M118.083 51.2119L123.102 55.6731H118.083V51.2119Z" fill="url(#paint4_linear_1_287)"/>
<path d="M159.031 80.8944H104.138C103.224 80.8944 102.483 80.236 102.483 79.4228V56.7106C102.483 55.8974 103.224 55.2385 104.138 55.2385H159.031C159.945 55.2385 160.687 55.8974 160.687 56.7106V79.4228C160.687 80.2355 159.945 80.8944 159.031 80.8944V80.8944Z" fill="url(#paint5_linear_1_287)"/>
<path d="M125.375 59.1869C124.429 58.2436 122.857 57.8791 121.455 58.4357C120.084 58.981 118.766 59.6934 117.56 60.2888C116.831 60.6491 116.234 61.0126 115.701 61.3747C115.124 61.1375 114.482 61.0045 113.805 61.0045C113.094 61.0045 112.423 61.1503 111.824 61.4097C111.298 61.0609 110.707 60.7115 109.992 60.366C108.78 59.7805 107.456 59.079 106.078 58.5455C104.156 57.8005 101.931 58.7761 101.432 60.5871C101.074 61.8864 102.699 63.1724 102.684 64.4646C102.684 64.4646 101.056 67.3861 101.475 68.8482C101.649 69.4527 102.015 69.961 102.497 70.3426L116.155 82.4832C116.242 82.5713 116.336 82.6536 116.434 82.7312C116.706 83.0044 117.031 83.2292 117.389 83.3972C117.444 83.4233 117.499 83.4474 117.555 83.4701C117.557 83.4711 117.559 83.472 117.561 83.4725C117.615 83.4947 117.669 83.5156 117.725 83.535C117.729 83.5364 117.733 83.5378 117.738 83.5392C117.79 83.5577 117.844 83.5752 117.897 83.5913C117.904 83.5932 117.911 83.5951 117.918 83.597C117.969 83.6121 118.021 83.6259 118.073 83.6391C118.082 83.641 118.091 83.6434 118.1 83.6453C118.15 83.6576 118.201 83.6685 118.252 83.6784C118.263 83.6808 118.274 83.6827 118.285 83.685C118.334 83.694 118.383 83.7021 118.432 83.7092C118.445 83.7111 118.459 83.713 118.472 83.7148C118.519 83.7215 118.567 83.7267 118.615 83.7314C118.63 83.7328 118.645 83.7343 118.66 83.7357C118.706 83.7399 118.752 83.7423 118.798 83.7447C118.815 83.7456 118.832 83.7466 118.85 83.747C118.894 83.7489 118.938 83.7494 118.983 83.7494C119.002 83.7494 119.021 83.7494 119.04 83.7489C119.083 83.7485 119.126 83.7466 119.169 83.7447C119.189 83.7432 119.21 83.7428 119.231 83.7414C119.272 83.7385 119.313 83.7347 119.355 83.7305C119.377 83.7281 119.399 83.7262 119.421 83.7238C119.461 83.7191 119.502 83.713 119.542 83.7068C119.565 83.7035 119.588 83.7006 119.611 83.6964C119.65 83.6898 119.69 83.6817 119.73 83.6737C119.753 83.6689 119.777 83.6647 119.8 83.6595C119.84 83.6505 119.879 83.6401 119.919 83.6296C119.942 83.624 119.965 83.6188 119.988 83.6121C120.031 83.6003 120.073 83.5866 120.114 83.5733C120.134 83.5672 120.155 83.5615 120.174 83.5549C120.236 83.534 120.298 83.5113 120.359 83.4872C121.216 83.1468 122.052 82.7407 122.853 82.3384C123.013 82.2579 123.172 82.1779 123.33 82.0984C123.644 81.9394 123.953 81.7832 124.254 81.6341C124.678 81.4244 125.058 81.2137 125.407 81.0031C125.424 80.9927 125.44 80.9823 125.457 80.9718C126.185 81.4187 127.069 81.6809 128.021 81.6809C129.003 81.6809 129.911 81.4016 130.653 80.9292C131.006 81.1394 131.392 81.3491 131.822 81.5569C131.974 81.6303 132.127 81.7055 132.283 81.7822C133.212 82.2395 134.2 82.7421 135.222 83.17C135.392 83.2415 135.564 83.3111 135.736 83.3774C135.798 83.4015 135.859 83.4233 135.921 83.4436C135.941 83.4503 135.961 83.4555 135.98 83.4616C135.982 83.4621 135.983 83.4626 135.985 83.463C136.005 83.4692 136.024 83.4749 136.044 83.4805C136.065 83.4867 136.087 83.4938 136.108 83.4995C136.131 83.5056 136.154 83.5108 136.176 83.5165C136.215 83.526 136.253 83.5359 136.292 83.5444C136.296 83.5454 136.299 83.5459 136.302 83.5468C136.324 83.5511 136.345 83.5544 136.366 83.5586C136.406 83.5667 136.446 83.5743 136.486 83.5809C136.508 83.5847 136.529 83.587 136.551 83.5904C136.569 83.5927 136.587 83.5956 136.605 83.5979C136.629 83.6008 136.653 83.6041 136.676 83.6065C136.698 83.6088 136.72 83.6107 136.742 83.6126C136.78 83.6159 136.818 83.6197 136.856 83.6221C136.863 83.6225 136.868 83.623 136.875 83.623C136.893 83.624 136.911 83.6244 136.929 83.6249C136.972 83.6268 137.014 83.6282 137.058 83.6287C137.077 83.6287 137.095 83.6287 137.114 83.6282H137.12C137.135 83.6282 137.15 83.6282 137.165 83.6278C137.192 83.6273 137.22 83.6263 137.248 83.6254C137.265 83.6244 137.282 83.6235 137.299 83.6225C137.339 83.6202 137.378 83.6178 137.417 83.6145C137.425 83.6136 137.435 83.6126 137.443 83.6117C137.456 83.6107 137.47 83.6093 137.482 83.6074C137.53 83.6027 137.578 83.597 137.625 83.5899C137.638 83.588 137.651 83.5861 137.665 83.5842C137.672 83.5828 137.68 83.5818 137.687 83.5804C137.695 83.5795 137.704 83.5781 137.712 83.5766C137.746 83.5714 137.779 83.5648 137.812 83.5582C137.823 83.5563 137.834 83.5539 137.845 83.5515C137.884 83.5435 137.924 83.535 137.964 83.5255C137.973 83.5231 137.983 83.5208 137.992 83.5184C137.994 83.5179 137.995 83.5175 137.996 83.5175C138.005 83.5151 138.014 83.5127 138.022 83.5108C138.075 83.4976 138.127 83.4829 138.179 83.4673C138.185 83.4654 138.192 83.4635 138.198 83.4616C138.251 83.445 138.305 83.4271 138.358 83.4081C138.362 83.4067 138.366 83.4053 138.371 83.4034C138.41 83.3892 138.449 83.3745 138.487 83.3589C138.494 83.3561 138.5 83.3537 138.506 83.3513C138.516 83.3475 138.524 83.3437 138.533 83.34C138.535 83.339 138.537 83.3385 138.539 83.3376C138.69 83.2742 138.835 83.2013 138.974 83.1189C138.977 83.117 138.98 83.1151 138.984 83.1132C139.135 83.0233 139.278 82.922 139.412 82.8112C139.413 82.8103 139.414 82.8094 139.415 82.8084C139.873 82.4264 140.22 81.9261 140.382 81.3363C140.786 79.8713 139.128 76.9631 139.128 76.9631C139.099 75.6709 140.71 74.3716 140.339 73.0756C140.165 72.4683 139.796 71.9581 139.312 71.5756L125.375 59.1869Z" fill="url(#paint6_linear_1_287)"/>
<path d="M96.3698 67.2356V62.0511C96.3698 61.3823 96.9795 60.8403 97.7325 60.8403H164.804C165.556 60.8403 166.166 61.3823 166.166 62.0511V67.2356C166.166 67.9044 165.557 68.4469 164.804 68.4469H97.7325C96.9795 68.4469 96.3698 67.9044 96.3698 67.2356V67.2356Z" fill="url(#paint7_linear_1_287)"/>
<path d="M120.978 68.4469H134.671L126.113 60.8403H120.978V68.4469Z" fill="url(#paint8_linear_1_287)"/>
<path d="M116.723 86.1323H110.89C110.138 86.1323 109.528 85.5899 109.528 84.921V51.2113C109.528 50.5424 110.138 50 110.89 50H116.723C117.475 50 118.086 50.542 118.086 51.2113V84.921C118.086 85.5899 117.475 86.1323 116.723 86.1323V86.1323Z" fill="url(#paint9_linear_1_287)"/>
<path d="M109.528 69.2169L118.086 76.824V65.9116H109.528V69.2169Z" fill="url(#paint10_linear_1_287)"/>
<path d="M112.702 62.0254C111.953 61.4745 111.129 60.9145 109.992 60.3654C108.78 59.7794 107.455 59.078 106.078 58.5445C104.155 57.7999 101.931 58.7755 101.432 60.5865C101.074 61.8858 102.699 63.1719 102.684 64.4641C102.684 64.4641 101.056 67.3855 101.475 68.8472C101.993 70.6539 104.228 71.611 106.143 70.8504C107.514 70.3055 108.832 69.5932 110.038 68.9972C111.168 68.4382 111.986 67.8716 112.731 67.3145C114.579 65.9305 114.566 63.3939 112.702 62.0254Z" fill="url(#paint11_linear_1_287)"/>
<path d="M124.913 64.3265C124.884 63.0343 126.496 61.7345 126.124 60.4385C125.606 58.6317 123.371 57.6746 121.457 58.4353C120.085 58.9801 118.767 59.6925 117.562 60.2884C116.431 60.8474 115.613 61.414 114.869 61.9707C113.02 63.3552 113.034 65.8918 114.897 67.2602C115.647 67.8107 116.471 68.3707 117.608 68.9202C118.82 69.5062 120.144 70.2072 121.522 70.7407C123.444 71.4857 125.669 70.5102 126.168 68.6992C126.571 67.2342 124.913 64.3265 124.913 64.3265Z" fill="url(#paint12_linear_1_287)"/>
<path d="M112.73 67.3152C113.319 66.8741 113.718 66.316 113.929 65.7163C110.509 66.0032 105.17 67.0559 103.172 70.7607C104.056 71.1763 105.143 71.2477 106.142 70.8506C107.513 70.3058 108.831 69.5934 110.037 68.998C111.168 68.439 111.985 67.8719 112.73 67.3152Z" fill="url(#paint13_linear_1_287)"/>
<path d="M104.1 64.4664C104.106 65.6829 104.286 69.0289 108.061 69.9884C108.745 69.6533 109.407 69.3096 110.038 68.9977C111.169 68.4392 111.986 67.8721 112.731 67.3155C113.767 66.5397 114.218 65.4018 114.087 64.3102C114.087 64.3102 112.105 63.3697 111.226 62.9958C106.473 60.9737 104.09 62.7548 104.1 64.4664Z" fill="url(#paint14_linear_1_287)"/>
<path d="M114.896 67.2609C114.302 66.8245 113.897 66.2702 113.68 65.6719C117.102 65.9303 122.453 66.9385 124.489 70.6268C123.609 71.0495 122.524 71.1299 121.52 70.7413C120.143 70.2079 118.818 69.5064 117.606 68.9209C116.469 68.3713 115.646 67.8114 114.896 67.2609Z" fill="url(#paint15_linear_1_287)"/>
<path d="M123.498 64.34C123.504 65.5565 123.36 68.9039 119.595 69.8946C118.908 69.5652 118.242 69.2272 117.607 68.9205C116.471 68.3714 115.647 67.8115 114.897 67.2605C113.852 66.4937 113.39 65.3596 113.51 64.2666C113.51 64.2666 115.481 63.31 116.357 62.9285C121.088 60.8671 123.489 62.6289 123.498 64.34Z" fill="url(#paint16_linear_1_287)"/>
<path d="M125.575 69.8032L117.111 62.2805C116.714 61.9027 116.236 61.5941 115.702 61.374C115.408 61.5738 115.134 61.773 114.869 61.9709C113.02 63.3549 113.034 65.8916 114.897 67.2605C115.647 67.811 116.471 68.3709 117.608 68.9205C118.819 69.506 120.145 70.2075 121.522 70.7409C123.003 71.3146 124.662 70.8668 125.575 69.8032Z" fill="url(#paint17_linear_1_287)"/>
<path d="M118.325 65.0247C118.325 67.2447 116.3 69.0448 113.803 69.0448C111.305 69.0448 109.28 67.2447 109.28 65.0247C109.28 62.8043 111.305 61.0046 113.803 61.0046C116.3 61.0046 118.325 62.8043 118.325 65.0247Z" fill="url(#paint18_linear_1_287)"/>
<path d="M119.617 72.5362C119.617 72.4273 119.689 72.3336 119.832 72.2546C119.975 72.176 120.128 72.1367 120.292 72.1367C120.496 72.1367 120.622 72.2035 120.67 72.3365L122.356 77.5134L124.032 72.3365C124.079 72.2035 124.2 72.1367 124.397 72.1367C124.559 72.1367 124.713 72.176 124.859 72.2546C125.005 72.3327 125.078 72.4264 125.078 72.5348C125.078 72.5528 125.071 72.5802 125.057 72.6162L123.035 78.5022C123.001 78.6054 122.92 78.6863 122.791 78.7441C122.663 78.8018 122.518 78.8307 122.356 78.8307C121.981 78.8307 121.753 78.7213 121.671 78.5036L119.627 72.6181C119.621 72.5996 119.617 72.5727 119.617 72.5362Z" fill="url(#paint19_linear_1_287)"/>
<path d="M125.822 76.8053V74.1621C125.822 73.4659 126.03 72.9542 126.445 72.6271C126.861 72.3 127.416 72.1367 128.111 72.1367C128.806 72.1367 129.362 72.3 129.782 72.6271C130.201 72.9542 130.41 73.4659 130.41 74.1621V76.8053C130.41 77.5015 130.201 78.0132 129.782 78.3398C129.362 78.6669 128.806 78.8307 128.111 78.8307C127.416 78.8307 126.861 78.6669 126.445 78.3398C126.029 78.0132 125.822 77.5015 125.822 76.8053ZM126.905 76.8053C126.905 77.5863 127.307 77.9768 128.111 77.9768C128.499 77.9768 128.799 77.8797 129.01 77.6861C129.221 77.4925 129.327 77.1986 129.327 76.8053V74.1621C129.327 73.7683 129.221 73.4748 129.01 73.2813C128.799 73.0872 128.499 72.9906 128.111 72.9906C127.307 72.9906 126.905 73.3811 126.905 74.1621V76.8053Z" fill="url(#paint20_linear_1_287)"/>
<path d="M131.647 76.8057V72.4458C131.647 72.3431 131.7 72.2655 131.805 72.2143C131.911 72.1628 132.038 72.1372 132.188 72.1372C132.338 72.1372 132.466 72.1628 132.571 72.2143C132.677 72.2655 132.73 72.3431 132.73 72.4458V76.8057C132.73 77.1991 132.839 77.493 133.057 77.6866C133.275 77.8802 133.582 77.9772 133.977 77.9772C134.814 77.9772 135.233 77.5867 135.233 76.8053V72.4458C135.233 72.3426 135.286 72.2655 135.392 72.2139C135.497 72.1628 135.625 72.1367 135.775 72.1367C135.925 72.1367 136.052 72.1628 136.158 72.2139C136.264 72.2655 136.316 72.3426 136.316 72.4458V76.8053C136.316 77.502 136.103 78.0132 135.678 78.3403C135.252 78.6674 134.685 78.8307 133.977 78.8307C133.275 78.8307 132.711 78.6674 132.285 78.3403C131.859 78.0137 131.647 77.502 131.647 76.8057V76.8057Z" fill="url(#paint21_linear_1_287)"/>
<path d="M137.562 76.8053V74.1621C137.562 73.4659 137.771 72.9542 138.19 72.6271C138.609 72.3 139.156 72.1367 139.83 72.1367C140.525 72.1367 141.085 72.2896 141.511 72.5949C141.937 72.9012 142.149 73.2959 142.149 73.7802C142.149 73.9742 142.109 74.1058 142.027 74.1754C141.945 74.245 141.805 74.28 141.608 74.28C141.254 74.28 141.073 74.174 141.066 73.9619C141.026 73.3144 140.627 72.9901 139.871 72.9901C139.053 72.9901 138.645 73.3807 138.645 74.1621V76.8053C138.645 77.5863 139.06 77.9768 139.892 77.9768C140.136 77.9768 140.341 77.9451 140.504 77.8816C140.668 77.8177 140.786 77.7254 140.857 77.6043C140.928 77.4836 140.978 77.3775 141.005 77.2866C141.032 77.1958 141.053 77.0836 141.066 76.9506C141.087 76.7385 141.264 76.6325 141.598 76.6325C141.795 76.6325 141.937 76.6675 142.022 76.7371C142.107 76.8067 142.149 76.9383 142.149 77.1323C142.149 77.635 141.935 78.0435 141.506 78.3583C141.077 78.6731 140.515 78.8307 139.82 78.8307C139.146 78.8307 138.601 78.6669 138.185 78.3398C137.77 78.0132 137.562 77.5015 137.562 76.8053V76.8053Z" fill="url(#paint22_linear_1_287)"/>
<path d="M143.16 78.4582V72.4453C143.16 72.3426 143.213 72.2655 143.318 72.2139C143.424 72.1628 143.552 72.1367 143.702 72.1367C143.851 72.1367 143.979 72.1623 144.085 72.2139C144.19 72.2655 144.243 72.3426 144.243 72.4453V74.9521H146.788V72.4453C146.788 72.3426 146.84 72.2655 146.946 72.2139C147.051 72.1628 147.179 72.1367 147.329 72.1367C147.479 72.1367 147.607 72.1623 147.712 72.2139C147.818 72.2655 147.87 72.3426 147.87 72.4453V78.4582C147.87 78.5552 147.818 78.6323 147.712 78.6896C147.607 78.7474 147.479 78.7762 147.329 78.7762C147.186 78.7762 147.06 78.7474 146.951 78.6896C146.842 78.6323 146.788 78.5552 146.788 78.4582V75.7152H144.243V78.4582C144.243 78.5552 144.19 78.6323 144.085 78.6896C143.979 78.7474 143.851 78.7762 143.702 78.7762C143.559 78.7762 143.432 78.7474 143.324 78.6896C143.215 78.6323 143.16 78.5552 143.16 78.4582V78.4582Z" fill="url(#paint23_linear_1_287)"/>
<path d="M149.22 78.4582V72.4543C149.22 72.3578 149.268 72.2806 149.364 72.2229C149.459 72.1651 149.571 72.1367 149.701 72.1367H153.338C153.454 72.1367 153.543 72.1788 153.604 72.2636C153.665 72.3483 153.696 72.4453 153.696 72.5542C153.696 72.6754 153.664 72.7786 153.599 72.8633C153.534 72.948 153.447 72.9901 153.338 72.9901H150.304V75.0705H151.877C151.986 75.0705 152.073 75.1083 152.138 75.1836C152.202 75.2598 152.235 75.3516 152.235 75.461C152.235 75.5575 152.204 75.6442 152.143 75.7199C152.082 75.7956 151.993 75.833 151.877 75.833H150.304V77.9223H153.338C153.447 77.9223 153.534 77.9645 153.599 78.0492C153.664 78.1344 153.696 78.2371 153.696 78.3583C153.696 78.4671 153.665 78.5642 153.604 78.6489C153.543 78.7336 153.454 78.7758 153.338 78.7758H149.701C149.571 78.7758 149.459 78.7474 149.364 78.6896C149.268 78.6323 149.22 78.5552 149.22 78.4582Z" fill="url(#paint24_linear_1_287)"/>
<path d="M154.564 78.4582V72.4453C154.564 72.3606 154.598 72.2882 154.667 72.2276C154.734 72.167 154.82 72.1367 154.922 72.1367H156.863C158.43 72.1367 159.213 72.7544 159.213 73.9894C159.213 74.502 159.084 74.9043 158.825 75.1969C158.566 75.4894 158.215 75.6839 157.773 75.7805L159.203 78.1746C159.23 78.2172 159.244 78.2627 159.244 78.3114C159.244 78.4326 159.174 78.5448 159.035 78.6484C158.895 78.7516 158.747 78.8032 158.59 78.8032C158.413 78.8032 158.27 78.709 158.161 78.5211L156.669 75.9149H155.637V78.4572C155.637 78.5542 155.584 78.6319 155.479 78.6896C155.373 78.7474 155.245 78.7762 155.095 78.7762C154.953 78.7762 154.828 78.7474 154.723 78.6896C154.617 78.6323 154.564 78.5552 154.564 78.4582ZM155.637 75.1519H156.863C157.708 75.1519 158.131 74.7921 158.131 74.0713C158.131 73.3508 157.708 72.9901 156.863 72.9901H155.637V75.1519Z" fill="url(#paint25_linear_1_287)"/>
<path d="M245.994 14.4184C246.177 14.4184 246.326 14.2866 246.326 14.124L246.326 12.7504C246.326 12.4715 246.071 12.2453 245.758 12.2453L231.203 12.2444C230.889 12.2444 230.635 12.4706 230.635 12.7495V14.1229C230.635 14.2856 230.783 14.4175 230.966 14.4176C231.149 14.4176 231.297 14.5495 231.297 14.7121L231.297 17.419C231.297 17.5816 231.149 17.7135 230.966 17.7135C230.783 17.7135 230.634 17.8454 230.634 18.0081L230.634 19.3817C230.634 19.6606 230.889 19.8866 231.202 19.8867L245.757 19.8876C246.071 19.8876 246.325 19.6615 246.325 19.3826L246.325 18.0091C246.325 17.8464 246.177 17.7145 245.994 17.7145C245.811 17.7145 245.663 17.5826 245.663 17.4198L245.663 14.713C245.663 14.5503 245.811 14.4184 245.994 14.4184V14.4184Z" fill="url(#paint26_linear_1_287)"/>
<path d="M230.634 18.104L230.634 19.3816C230.634 19.6605 230.888 19.8865 231.202 19.8866L245.757 19.8875C246.071 19.8875 246.325 19.6614 246.325 19.3825L246.325 18.1041H230.634V18.104Z" fill="url(#paint27_linear_1_287)"/>
<path d="M231.273 16.1519L232.316 17.0792V16.1519H231.273Z" fill="url(#paint28_linear_1_287)"/>
<path d="M235.512 12.2727L236.642 13.2768H235.512V12.2727Z" fill="url(#paint29_linear_1_287)"/>
<path d="M244.728 18.9533H232.373C232.168 18.9533 232.001 18.8051 232.001 18.6221V13.5103C232.001 13.3273 232.168 13.179 232.373 13.179H244.728C244.934 13.179 245.101 13.3273 245.101 13.5103V18.6221C245.101 18.805 244.934 18.9533 244.728 18.9533V18.9533Z" fill="url(#paint30_linear_1_287)"/>
<path d="M237.153 14.0675C236.94 13.8552 236.586 13.7732 236.271 13.8985C235.962 14.0212 235.666 14.1815 235.394 14.3155C235.23 14.3966 235.096 14.4784 234.976 14.5599C234.846 14.5066 234.701 14.4766 234.549 14.4766C234.389 14.4766 234.238 14.5094 234.103 14.5678C233.985 14.4893 233.852 14.4107 233.691 14.3329C233.418 14.2011 233.12 14.0432 232.81 13.9232C232.377 13.7555 231.877 13.9751 231.764 14.3827C231.684 14.6751 232.049 14.9646 232.046 15.2554C232.046 15.2554 231.68 15.9129 231.774 16.242C231.813 16.3781 231.895 16.4925 232.004 16.5783L235.078 19.3108C235.098 19.3307 235.119 19.3492 235.141 19.3667C235.202 19.4281 235.275 19.4787 235.356 19.5166C235.368 19.5224 235.38 19.5278 235.393 19.533C235.394 19.5332 235.394 19.5334 235.395 19.5335C235.407 19.5385 235.419 19.5432 235.431 19.5476C235.432 19.5479 235.433 19.5482 235.434 19.5485C235.446 19.5527 235.458 19.5566 235.47 19.5602C235.472 19.5607 235.473 19.5611 235.475 19.5615C235.486 19.5649 235.498 19.568 235.51 19.571C235.512 19.5714 235.514 19.572 235.516 19.5724C235.527 19.5751 235.538 19.5776 235.55 19.5798C235.552 19.5804 235.555 19.5808 235.557 19.5813C235.568 19.5834 235.579 19.5852 235.59 19.5868C235.593 19.5872 235.596 19.5876 235.599 19.588C235.61 19.5895 235.621 19.5907 235.632 19.5918C235.635 19.5921 235.638 19.5924 235.642 19.5927C235.652 19.5937 235.662 19.5942 235.673 19.5948C235.677 19.595 235.681 19.5952 235.685 19.5953C235.694 19.5957 235.704 19.5958 235.715 19.5958C235.719 19.5958 235.723 19.5958 235.727 19.5957C235.737 19.5956 235.747 19.5952 235.756 19.5948C235.761 19.5944 235.766 19.5943 235.77 19.594C235.78 19.5934 235.789 19.5925 235.798 19.5916C235.803 19.591 235.808 19.5906 235.813 19.5901C235.822 19.589 235.831 19.5876 235.84 19.5862C235.846 19.5855 235.851 19.5848 235.856 19.5839C235.865 19.5824 235.874 19.5806 235.883 19.5788C235.888 19.5777 235.893 19.5767 235.898 19.5756C235.907 19.5736 235.916 19.5712 235.925 19.5689C235.93 19.5676 235.936 19.5664 235.941 19.5649C235.95 19.5623 235.96 19.5592 235.969 19.5562C235.974 19.5548 235.978 19.5535 235.983 19.552C235.997 19.5473 236.01 19.5422 236.024 19.5368C236.217 19.4602 236.405 19.3688 236.586 19.2782C236.622 19.2601 236.657 19.2421 236.693 19.2242C236.764 19.1884 236.833 19.1533 236.901 19.1197C236.996 19.0725 237.082 19.0251 237.16 18.9777C237.164 18.9754 237.168 18.973 237.172 18.9707C237.335 19.0712 237.534 19.1303 237.749 19.1303C237.97 19.1303 238.174 19.0674 238.341 18.9611C238.421 19.0084 238.507 19.0556 238.604 19.1024C238.638 19.1189 238.673 19.1358 238.708 19.1531C238.917 19.256 239.139 19.3691 239.369 19.4654C239.408 19.4815 239.446 19.4972 239.485 19.5121C239.499 19.5175 239.513 19.5224 239.527 19.527C239.531 19.5285 239.536 19.5297 239.54 19.531C239.54 19.5312 239.541 19.5313 239.541 19.5314C239.546 19.5327 239.55 19.534 239.554 19.5353C239.559 19.5367 239.564 19.5383 239.569 19.5396C239.574 19.541 239.579 19.5421 239.584 19.5434C239.593 19.5455 239.602 19.5478 239.61 19.5497C239.611 19.5499 239.612 19.55 239.613 19.5502C239.617 19.5512 239.622 19.5519 239.627 19.5529C239.636 19.5547 239.645 19.5564 239.654 19.5579C239.659 19.5587 239.664 19.5593 239.669 19.56C239.673 19.5606 239.677 19.5612 239.681 19.5617C239.686 19.5624 239.691 19.5631 239.697 19.5636C239.702 19.5642 239.707 19.5646 239.711 19.565C239.72 19.5658 239.729 19.5666 239.737 19.5672C239.739 19.5673 239.74 19.5674 239.741 19.5674C239.745 19.5676 239.749 19.5677 239.753 19.5678C239.763 19.5682 239.773 19.5685 239.782 19.5687C239.787 19.5687 239.791 19.5687 239.795 19.5685H239.797C239.8 19.5685 239.803 19.5685 239.807 19.5684C239.813 19.5683 239.819 19.5681 239.825 19.5679C239.829 19.5677 239.833 19.5675 239.837 19.5673C239.846 19.5667 239.855 19.5662 239.863 19.5655C239.865 19.5652 239.867 19.565 239.869 19.5648C239.872 19.5646 239.875 19.5643 239.878 19.5639C239.889 19.5628 239.9 19.5615 239.91 19.5599C239.913 19.5595 239.916 19.5591 239.919 19.5586C239.921 19.5583 239.923 19.5581 239.924 19.5578C239.926 19.5576 239.928 19.5573 239.93 19.5569C239.937 19.5558 239.945 19.5543 239.952 19.5528C239.955 19.5524 239.957 19.5518 239.96 19.5513C239.969 19.5495 239.978 19.5476 239.987 19.5454C239.989 19.5449 239.991 19.5444 239.993 19.5438C239.993 19.5437 239.994 19.5436 239.994 19.5436C239.996 19.5431 239.998 19.5426 240 19.5421C240.012 19.5391 240.023 19.5358 240.035 19.5323C240.036 19.5319 240.038 19.5315 240.039 19.531C240.051 19.5273 240.063 19.5233 240.075 19.519C240.076 19.5187 240.077 19.5184 240.078 19.5179C240.087 19.5147 240.096 19.5114 240.104 19.5079C240.106 19.5073 240.107 19.5068 240.109 19.5062C240.111 19.5054 240.113 19.5045 240.115 19.5037C240.115 19.5035 240.116 19.5033 240.116 19.5031C240.15 19.4889 240.183 19.4725 240.214 19.4539C240.215 19.4535 240.215 19.4531 240.216 19.4526C240.25 19.4324 240.282 19.4096 240.312 19.3847C240.313 19.3845 240.313 19.3842 240.313 19.384C240.416 19.2981 240.494 19.1854 240.531 19.0527C240.622 18.723 240.248 18.0684 240.248 18.0684C240.242 17.7776 240.605 17.4852 240.521 17.1935C240.482 17.0568 240.399 16.9419 240.29 16.8559L237.153 14.0675Z" fill="url(#paint31_linear_1_287)"/>
<path d="M230.625 15.8793V14.7125C230.625 14.5619 230.762 14.4399 230.932 14.4399H246.027C246.197 14.4399 246.334 14.5619 246.334 14.7125V15.8793C246.334 16.0299 246.197 16.1519 246.027 16.1519H230.932C230.762 16.1519 230.625 16.0299 230.625 15.8793V15.8793Z" fill="url(#paint32_linear_1_287)"/>
<path d="M236.163 16.1519H239.245L237.319 14.4399H236.163V16.1519Z" fill="url(#paint33_linear_1_287)"/>
<path d="M235.206 20.1323H233.893C233.724 20.1323 233.587 20.0102 233.587 19.8597V12.2726C233.587 12.1221 233.724 12 233.893 12H235.206C235.375 12 235.513 12.122 235.513 12.2726V19.8597C235.513 20.0102 235.375 20.1323 235.206 20.1323V20.1323Z" fill="url(#paint34_linear_1_287)"/>
<path d="M233.587 16.325L235.513 18.0371V15.5811H233.587V16.325Z" fill="url(#paint35_linear_1_287)"/>
<path d="M234.301 14.7065C234.132 14.5825 233.947 14.4565 233.691 14.3329C233.418 14.201 233.12 14.0431 232.81 13.9231C232.377 13.7555 231.877 13.9751 231.764 14.3827C231.684 14.6751 232.049 14.9645 232.046 15.2554C232.046 15.2554 231.68 15.9129 231.774 16.2419C231.891 16.6485 232.394 16.8639 232.825 16.6927C233.133 16.5701 233.43 16.4098 233.701 16.2757C233.956 16.1498 234.14 16.0223 234.307 15.8969C234.723 15.5854 234.72 15.0145 234.301 14.7065Z" fill="url(#paint36_linear_1_287)"/>
<path d="M237.049 15.2245C237.043 14.9336 237.405 14.6411 237.322 14.3494C237.205 13.9427 236.702 13.7273 236.271 13.8985C235.963 14.0212 235.666 14.1815 235.395 14.3156C235.14 14.4414 234.956 14.569 234.789 14.6942C234.372 15.0059 234.376 15.5768 234.795 15.8848C234.964 16.0087 235.149 16.1347 235.405 16.2584C235.678 16.3903 235.976 16.548 236.286 16.6681C236.719 16.8358 237.219 16.6162 237.332 16.2086C237.422 15.8789 237.049 15.2245 237.049 15.2245Z" fill="url(#paint37_linear_1_287)"/>
<path d="M234.307 15.8972C234.44 15.7979 234.529 15.6723 234.577 15.5374C233.807 15.6019 232.606 15.8388 232.156 16.6727C232.355 16.7662 232.6 16.7823 232.824 16.6929C233.133 16.5703 233.43 16.41 233.701 16.276C233.956 16.1501 234.14 16.0225 234.307 15.8972Z" fill="url(#paint38_linear_1_287)"/>
<path d="M232.365 15.2559C232.366 15.5297 232.407 16.2828 233.256 16.4988C233.41 16.4233 233.559 16.346 233.701 16.2758C233.956 16.1501 234.14 16.0225 234.307 15.8972C234.541 15.7226 234.642 15.4665 234.613 15.2208C234.613 15.2208 234.167 15.0091 233.969 14.9249C232.899 14.4698 232.363 14.8707 232.365 15.2559Z" fill="url(#paint39_linear_1_287)"/>
<path d="M234.795 15.885C234.661 15.7868 234.57 15.662 234.521 15.5273C235.291 15.5855 236.496 15.8124 236.954 16.6425C236.756 16.7377 236.512 16.7558 236.286 16.6683C235.976 16.5483 235.678 16.3904 235.405 16.2586C235.149 16.1349 234.964 16.0089 234.795 15.885Z" fill="url(#paint40_linear_1_287)"/>
<path d="M236.731 15.2275C236.732 15.5013 236.7 16.2547 235.852 16.4777C235.698 16.4036 235.548 16.3275 235.405 16.2585C235.149 16.1349 234.964 16.0088 234.795 15.8848C234.56 15.7123 234.456 15.457 234.483 15.211C234.483 15.211 234.926 14.9957 235.123 14.9098C236.188 14.4459 236.729 14.8424 236.731 15.2275Z" fill="url(#paint41_linear_1_287)"/>
<path d="M237.198 16.4572L235.293 14.7641C235.204 14.6791 235.096 14.6096 234.976 14.5601C234.91 14.605 234.848 14.6499 234.789 14.6944C234.373 15.0059 234.376 15.5768 234.795 15.8849C234.964 16.0088 235.149 16.1348 235.405 16.2585C235.678 16.3903 235.976 16.5482 236.286 16.6683C236.619 16.7974 236.993 16.6966 237.198 16.4572Z" fill="url(#paint42_linear_1_287)"/>
<path d="M235.566 15.3818C235.566 15.8815 235.111 16.2866 234.548 16.2866C233.986 16.2866 233.53 15.8815 233.53 15.3818C233.53 14.8821 233.986 14.4771 234.548 14.4771C235.111 14.4771 235.566 14.8821 235.566 15.3818Z" fill="url(#paint43_linear_1_287)"/>
<path d="M235.857 17.0723C235.857 17.0478 235.873 17.0267 235.905 17.0089C235.938 16.9913 235.972 16.9824 236.009 16.9824C236.055 16.9824 236.083 16.9974 236.094 17.0274L236.474 18.1925L236.851 17.0274C236.861 16.9974 236.889 16.9824 236.933 16.9824C236.97 16.9824 237.004 16.9913 237.037 17.0089C237.07 17.0265 237.086 17.0476 237.086 17.072C237.086 17.0761 237.085 17.0822 237.082 17.0903L236.627 18.4151C236.619 18.4383 236.6 18.4565 236.572 18.4695C236.543 18.4825 236.51 18.489 236.474 18.489C236.389 18.489 236.338 18.4644 236.319 18.4154L235.859 17.0908C235.858 17.0866 235.857 17.0805 235.857 17.0723Z" fill="url(#paint44_linear_1_287)"/>
<path d="M237.254 18.0332V17.4383C237.254 17.2816 237.3 17.1664 237.394 17.0928C237.487 17.0192 237.612 16.9824 237.769 16.9824C237.925 16.9824 238.05 17.0192 238.145 17.0928C238.239 17.1664 238.286 17.2816 238.286 17.4383V18.0332C238.286 18.1899 238.239 18.305 238.145 18.3786C238.05 18.4522 237.925 18.489 237.769 18.489C237.612 18.489 237.487 18.4522 237.394 18.3786C237.3 18.305 237.254 18.1899 237.254 18.0332ZM237.497 18.0332C237.497 18.209 237.588 18.2968 237.769 18.2968C237.856 18.2968 237.924 18.275 237.971 18.2314C238.019 18.1879 238.042 18.1217 238.042 18.0332V17.4383C238.042 17.3496 238.019 17.2836 237.971 17.24C237.924 17.1963 237.856 17.1746 237.769 17.1746C237.588 17.1746 237.497 17.2625 237.497 17.4383V18.0332Z" fill="url(#paint45_linear_1_287)"/>
<path d="M238.565 18.0333V17.052C238.565 17.0289 238.577 17.0114 238.6 16.9999C238.624 16.9883 238.653 16.9825 238.687 16.9825C238.72 16.9825 238.749 16.9883 238.773 16.9999C238.797 17.0114 238.809 17.0289 238.809 17.052V18.0333C238.809 18.1218 238.833 18.188 238.882 18.2315C238.931 18.2751 239 18.2969 239.089 18.2969C239.278 18.2969 239.372 18.2091 239.372 18.0332V17.052C239.372 17.0288 239.384 17.0114 239.408 16.9998C239.432 16.9883 239.46 16.9824 239.494 16.9824C239.528 16.9824 239.556 16.9883 239.58 16.9998C239.604 17.0114 239.616 17.0288 239.616 17.052V18.0332C239.616 18.19 239.568 18.305 239.472 18.3787C239.376 18.4523 239.249 18.489 239.089 18.489C238.931 18.489 238.804 18.4523 238.709 18.3787C238.613 18.3052 238.565 18.19 238.565 18.0333V18.0333Z" fill="url(#paint46_linear_1_287)"/>
<path d="M239.896 18.0332V17.4383C239.896 17.2816 239.943 17.1664 240.038 17.0928C240.132 17.0192 240.255 16.9824 240.407 16.9824C240.563 16.9824 240.689 17.0168 240.785 17.0855C240.881 17.1545 240.929 17.2433 240.929 17.3523C240.929 17.396 240.92 17.4256 240.901 17.4413C240.883 17.4569 240.851 17.4648 240.807 17.4648C240.727 17.4648 240.686 17.4409 240.685 17.3932C240.676 17.2475 240.586 17.1745 240.416 17.1745C240.232 17.1745 240.14 17.2624 240.14 17.4383V18.0332C240.14 18.209 240.233 18.2968 240.42 18.2968C240.476 18.2968 240.522 18.2897 240.558 18.2754C240.595 18.261 240.622 18.2403 240.638 18.213C240.654 18.1858 240.665 18.162 240.671 18.1415C240.677 18.1211 240.682 18.0958 240.685 18.0659C240.69 18.0181 240.729 17.9943 240.804 17.9943C240.849 17.9943 240.881 18.0022 240.9 18.0178C240.919 18.0335 240.929 18.0631 240.929 18.1068C240.929 18.2199 240.88 18.3119 240.784 18.3827C240.687 18.4536 240.561 18.489 240.404 18.489C240.253 18.489 240.13 18.4522 240.036 18.3786C239.943 18.305 239.896 18.1899 239.896 18.0332V18.0332Z" fill="url(#paint47_linear_1_287)"/>
<path d="M241.156 18.4052V17.0519C241.156 17.0288 241.168 17.0114 241.192 16.9998C241.216 16.9883 241.244 16.9824 241.278 16.9824C241.312 16.9824 241.341 16.9882 241.364 16.9998C241.388 17.0114 241.4 17.0288 241.4 17.0519V17.6161H241.973V17.0519C241.973 17.0288 241.984 17.0114 242.008 16.9998C242.032 16.9883 242.061 16.9824 242.095 16.9824C242.128 16.9824 242.157 16.9882 242.181 16.9998C242.204 17.0114 242.216 17.0288 242.216 17.0519V18.4052C242.216 18.427 242.204 18.4444 242.181 18.4573C242.157 18.4703 242.128 18.4768 242.095 18.4768C242.062 18.4768 242.034 18.4703 242.009 18.4573C241.985 18.4444 241.973 18.427 241.973 18.4052V17.7878H241.4V18.4052C241.4 18.427 241.388 18.4444 241.364 18.4573C241.341 18.4703 241.312 18.4768 241.278 18.4768C241.246 18.4768 241.217 18.4703 241.193 18.4573C241.168 18.4444 241.156 18.427 241.156 18.4052V18.4052Z" fill="url(#paint48_linear_1_287)"/>
<path d="M242.52 18.4052V17.0539C242.52 17.0322 242.531 17.0148 242.552 17.0018C242.574 16.9888 242.599 16.9824 242.628 16.9824H243.447C243.473 16.9824 243.493 16.9919 243.507 17.011C243.521 17.03 243.528 17.0519 243.528 17.0764C243.528 17.1037 243.52 17.1269 243.506 17.146C243.491 17.165 243.472 17.1745 243.447 17.1745H242.764V17.6427H243.118C243.143 17.6427 243.162 17.6512 243.177 17.6682C243.191 17.6853 243.199 17.706 243.199 17.7306C243.199 17.7523 243.192 17.7718 243.178 17.7889C243.164 17.8059 243.144 17.8143 243.118 17.8143H242.764V18.2846H243.447C243.472 18.2846 243.491 18.2941 243.506 18.3131C243.52 18.3323 243.528 18.3554 243.528 18.3827C243.528 18.4072 243.521 18.4291 243.507 18.4481C243.493 18.4672 243.473 18.4767 243.447 18.4767H242.628C242.599 18.4767 242.574 18.4703 242.552 18.4573C242.531 18.4444 242.52 18.427 242.52 18.4052Z" fill="url(#paint49_linear_1_287)"/>
<path d="M243.723 18.4052V17.0519C243.723 17.0328 243.73 17.0165 243.746 17.0029C243.761 16.9892 243.78 16.9824 243.803 16.9824H244.24C244.593 16.9824 244.769 17.1214 244.769 17.3994C244.769 17.5148 244.74 17.6053 244.682 17.6712C244.623 17.737 244.544 17.7808 244.445 17.8025L244.767 18.3414C244.773 18.351 244.776 18.3612 244.776 18.3722C244.776 18.3994 244.76 18.4247 244.729 18.448C244.697 18.4712 244.664 18.4829 244.629 18.4829C244.589 18.4829 244.557 18.4617 244.532 18.4194L244.196 17.8328H243.964V18.405C243.964 18.4268 243.952 18.4443 243.929 18.4573C243.905 18.4703 243.876 18.4768 243.842 18.4768C243.81 18.4768 243.782 18.4703 243.758 18.4573C243.735 18.4444 243.723 18.427 243.723 18.4052ZM243.964 17.661H244.24C244.43 17.661 244.525 17.5801 244.525 17.4178C244.525 17.2557 244.43 17.1745 244.24 17.1745H243.964V17.661Z" fill="url(#paint50_linear_1_287)"/>
<defs>
<linearGradient id="paint0_linear_1_287" x1="143.342" y1="-24.9942" x2="148.951" y2="260.153" gradientUnits="userSpaceOnUse">
<stop stop-color="#FD749B"/>
<stop offset="1" stop-color="#281AC8"/>
</linearGradient>
<linearGradient id="paint1_linear_1_287" x1="113.19" y1="51.9941" x2="154.844" y2="98.8553" gradientUnits="userSpaceOnUse">
<stop stop-color="#FFD459"/>
<stop offset="0.2296" stop-color="#FFD355"/>
<stop offset="0.4362" stop-color="#FFCF4A"/>
<stop offset="0.634" stop-color="#FFC838"/>
<stop offset="0.825" stop-color="#FFBF1F"/>
<stop offset="1" stop-color="#FFB400"/>
</linearGradient>
<linearGradient id="paint2_linear_1_287" x1="131.27" y1="80.6238" x2="131.27" y2="86.851" gradientUnits="userSpaceOnUse">
<stop stop-color="#E58200" stop-opacity="0"/>
<stop offset="0.0396" stop-color="#E27F04" stop-opacity="0.039216"/>
<stop offset="0.4671" stop-color="#C15D2F" stop-opacity="0.466667"/>
<stop offset="0.8016" stop-color="#AD4949" stop-opacity="0.8"/>
<stop offset="1" stop-color="#A64153"/>
</linearGradient>
<linearGradient id="paint3_linear_1_287" x1="102.861" y1="71.0802" x2="101.353" y2="67.2013" gradientUnits="userSpaceOnUse">
<stop stop-color="#E58200" stop-opacity="0"/>
<stop offset="0.0396" stop-color="#E27F04" stop-opacity="0.039216"/>
<stop offset="0.4671" stop-color="#C15D2F" stop-opacity="0.466667"/>
<stop offset="0.8016" stop-color="#AD4949" stop-opacity="0.8"/>
<stop offset="1" stop-color="#A64153"/>
</linearGradient>
<linearGradient id="paint4_linear_1_287" x1="121.576" y1="55.6364" x2="111.748" y2="47.8231" gradientUnits="userSpaceOnUse">
<stop stop-color="#E58200" stop-opacity="0"/>
<stop offset="0.0396" stop-color="#E27F04" stop-opacity="0.039216"/>
<stop offset="0.4671" stop-color="#C15D2F" stop-opacity="0.466667"/>
<stop offset="0.8016" stop-color="#AD4949" stop-opacity="0.8"/>
<stop offset="1" stop-color="#A64153"/>
</linearGradient>
<linearGradient id="paint5_linear_1_287" x1="116.922" y1="55.0312" x2="150.701" y2="93.0385" gradientUnits="userSpaceOnUse">
<stop stop-color="#FFFCF8"/>
<stop offset="0.1875" stop-color="#FAF8F6"/>
<stop offset="0.4041" stop-color="#ECEEF2"/>
<stop offset="0.6353" stop-color="#D5DCEA"/>
<stop offset="0.875" stop-color="#B5C4DF"/>
<stop offset="1" stop-color="#A1B5D8"/>
</linearGradient>
<linearGradient id="paint6_linear_1_287" x1="123.798" y1="76.8352" x2="114.001" y2="51.6429" gradientUnits="userSpaceOnUse">
<stop stop-color="#A1B5D8" stop-opacity="0"/>
<stop offset="0.0343" stop-color="#9FB3D5" stop-opacity="0.035294"/>
<stop offset="0.4515" stop-color="#8898AF" stop-opacity="0.45098"/>
<stop offset="0.788" stop-color="#798898" stop-opacity="0.788235"/>
<stop offset="1" stop-color="#748290"/>
</linearGradient>
<linearGradient id="paint7_linear_1_287" x1="131.268" y1="63.1219" x2="131.268" y2="71.3629" gradientUnits="userSpaceOnUse">
<stop stop-color="#FF6E3A"/>
<stop offset="0.1596" stop-color="#FF6440"/>
<stop offset="0.4266" stop-color="#FF4B52"/>
<stop offset="0.7662" stop-color="#FF216E"/>
<stop offset="1" stop-color="#FF0084"/>
</linearGradient>
<linearGradient id="paint8_linear_1_287" x1="129.25" y1="69.7147" x2="120.395" y2="59.7519" gradientUnits="userSpaceOnUse">
<stop stop-color="#E58200" stop-opacity="0"/>
<stop offset="0.4384" stop-color="#C4602C" stop-opacity="0.439216"/>
<stop offset="0.7953" stop-color="#AE4948" stop-opacity="0.796078"/>
<stop offset="1" stop-color="#A64153"/>
</linearGradient>
<linearGradient id="paint9_linear_1_287" x1="113.807" y1="65.9695" x2="113.807" y2="94.3643" gradientUnits="userSpaceOnUse">
<stop stop-color="#FF6E3A"/>
<stop offset="0.1596" stop-color="#FF6440"/>
<stop offset="0.4266" stop-color="#FF4B52"/>
<stop offset="0.7662" stop-color="#FF216E"/>
<stop offset="1" stop-color="#FF0084"/>
</linearGradient>
<linearGradient id="paint10_linear_1_287" x1="119.285" y1="72.4338" x2="110.993" y2="63.1052" gradientUnits="userSpaceOnUse">
<stop stop-color="#E58200" stop-opacity="0"/>
<stop offset="0.4384" stop-color="#C4602C" stop-opacity="0.439216"/>
<stop offset="0.7953" stop-color="#AE4948" stop-opacity="0.796078"/>
<stop offset="1" stop-color="#A64153"/>
</linearGradient>
<linearGradient id="paint11_linear_1_287" x1="109.42" y1="72.011" x2="106.365" y2="59.0156" gradientUnits="userSpaceOnUse">
<stop stop-color="#FF0084"/>
<stop offset="0.2338" stop-color="#FF216E"/>
<stop offset="0.5734" stop-color="#FF4B52"/>
<stop offset="0.8404" stop-color="#FF6440"/>
<stop offset="1" stop-color="#FF6E3A"/>
</linearGradient>
<linearGradient id="paint12_linear_1_287" x1="119.343" y1="72.6196" x2="120.374" y2="56.8905" gradientUnits="userSpaceOnUse">
<stop stop-color="#FF0084"/>
<stop offset="0.2338" stop-color="#FF216E"/>
<stop offset="0.5734" stop-color="#FF4B52"/>
<stop offset="0.8404" stop-color="#FF6440"/>
<stop offset="1" stop-color="#FF6E3A"/>
</linearGradient>
<linearGradient id="paint13_linear_1_287" x1="108.622" y1="69.7353" x2="108.41" y2="64.8704" gradientUnits="userSpaceOnUse">
<stop stop-color="#E58200" stop-opacity="0"/>
<stop offset="0.4384" stop-color="#C4602C" stop-opacity="0.439216"/>
<stop offset="0.7953" stop-color="#AE4948" stop-opacity="0.796078"/>
<stop offset="1" stop-color="#A64153"/>
</linearGradient>
<linearGradient id="paint14_linear_1_287" x1="107.341" y1="66.1268" x2="115.625" y2="58.5991" gradientUnits="userSpaceOnUse">
<stop stop-color="#E58200" stop-opacity="0"/>
<stop offset="0.4384" stop-color="#C4602C" stop-opacity="0.439216"/>
<stop offset="0.7953" stop-color="#AE4948" stop-opacity="0.796078"/>
<stop offset="1" stop-color="#A64153"/>
</linearGradient>
<linearGradient id="paint15_linear_1_287" x1="119.003" y1="69.6459" x2="119.175" y2="64.7789" gradientUnits="userSpaceOnUse">
<stop stop-color="#E58200" stop-opacity="0"/>
<stop offset="0.4384" stop-color="#C4602C" stop-opacity="0.439216"/>
<stop offset="0.7953" stop-color="#AE4948" stop-opacity="0.796078"/>
<stop offset="1" stop-color="#A64153"/>
</linearGradient>
<linearGradient id="paint16_linear_1_287" x1="120.249" y1="66.0265" x2="111.883" y2="58.5702" gradientUnits="userSpaceOnUse">
<stop stop-color="#E58200" stop-opacity="0"/>
<stop offset="0.4384" stop-color="#C4602C" stop-opacity="0.439216"/>
<stop offset="0.7953" stop-color="#AE4948" stop-opacity="0.796078"/>
<stop offset="1" stop-color="#A64153"/>
</linearGradient>
<linearGradient id="paint17_linear_1_287" x1="121.152" y1="69.3553" x2="114.932" y2="62.3581" gradientUnits="userSpaceOnUse">
<stop stop-color="#E58200" stop-opacity="0"/>
<stop offset="0.4384" stop-color="#C4602C" stop-opacity="0.439216"/>
<stop offset="0.7953" stop-color="#AE4948" stop-opacity="0.796078"/>
<stop offset="1" stop-color="#A64153"/>
</linearGradient>
<linearGradient id="paint18_linear_1_287" x1="111.187" y1="62.7001" x2="116.906" y2="69.1334" gradientUnits="userSpaceOnUse">
<stop stop-color="#FF6E3A"/>
<stop offset="0.1596" stop-color="#FF6440"/>
<stop offset="0.4266" stop-color="#FF4B52"/>
<stop offset="0.7662" stop-color="#FF216E"/>
<stop offset="1" stop-color="#FF0084"/>
</linearGradient>
<linearGradient id="paint19_linear_1_287" x1="122.348" y1="74.1222" x2="122.348" y2="80.3089" gradientUnits="userSpaceOnUse">
<stop stop-color="#45425A"/>
<stop offset="1" stop-color="#2D3251"/>
</linearGradient>
<linearGradient id="paint20_linear_1_287" x1="128.116" y1="74.1222" x2="128.116" y2="80.3089" gradientUnits="userSpaceOnUse">
<stop stop-color="#45425A"/>
<stop offset="1" stop-color="#2D3251"/>
</linearGradient>
<linearGradient id="paint21_linear_1_287" x1="133.982" y1="74.1227" x2="133.982" y2="80.3093" gradientUnits="userSpaceOnUse">
<stop stop-color="#45425A"/>
<stop offset="1" stop-color="#2D3251"/>
</linearGradient>
<linearGradient id="paint22_linear_1_287" x1="139.856" y1="74.1222" x2="139.856" y2="80.3089" gradientUnits="userSpaceOnUse">
<stop stop-color="#45425A"/>
<stop offset="1" stop-color="#2D3251"/>
</linearGradient>
<linearGradient id="paint23_linear_1_287" x1="145.515" y1="74.1222" x2="145.515" y2="80.3089" gradientUnits="userSpaceOnUse">
<stop stop-color="#45425A"/>
<stop offset="1" stop-color="#2D3251"/>
</linearGradient>
<linearGradient id="paint24_linear_1_287" x1="151.458" y1="74.1222" x2="151.458" y2="80.3089" gradientUnits="userSpaceOnUse">
<stop stop-color="#45425A"/>
<stop offset="1" stop-color="#2D3251"/>
</linearGradient>
<linearGradient id="paint25_linear_1_287" x1="156.904" y1="74.1222" x2="156.904" y2="80.3089" gradientUnits="userSpaceOnUse">
<stop stop-color="#45425A"/>
<stop offset="1" stop-color="#2D3251"/>
</linearGradient>
<linearGradient id="paint26_linear_1_287" x1="234.41" y1="12.4487" x2="243.786" y2="22.9958" gradientUnits="userSpaceOnUse">
<stop stop-color="#FFD459"/>
<stop offset="0.2296" stop-color="#FFD355"/>
<stop offset="0.4362" stop-color="#FFCF4A"/>
<stop offset="0.634" stop-color="#FFC838"/>
<stop offset="0.825" stop-color="#FFBF1F"/>
<stop offset="1" stop-color="#FFB400"/>
</linearGradient>
<linearGradient id="paint27_linear_1_287" x1="238.48" y1="18.8923" x2="238.48" y2="20.2939" gradientUnits="userSpaceOnUse">
<stop stop-color="#E58200" stop-opacity="0"/>
<stop offset="0.0396" stop-color="#E27F04" stop-opacity="0.039216"/>
<stop offset="0.4671" stop-color="#C15D2F" stop-opacity="0.466667"/>
<stop offset="0.8016" stop-color="#AD4949" stop-opacity="0.8"/>
<stop offset="1" stop-color="#A64153"/>
</linearGradient>
<linearGradient id="paint28_linear_1_287" x1="232.086" y1="16.7446" x2="231.747" y2="15.8716" gradientUnits="userSpaceOnUse">
<stop stop-color="#E58200" stop-opacity="0"/>
<stop offset="0.0396" stop-color="#E27F04" stop-opacity="0.039216"/>
<stop offset="0.4671" stop-color="#C15D2F" stop-opacity="0.466667"/>
<stop offset="0.8016" stop-color="#AD4949" stop-opacity="0.8"/>
<stop offset="1" stop-color="#A64153"/>
</linearGradient>
<linearGradient id="paint29_linear_1_287" x1="236.298" y1="13.2685" x2="234.086" y2="11.51" gradientUnits="userSpaceOnUse">
<stop stop-color="#E58200" stop-opacity="0"/>
<stop offset="0.0396" stop-color="#E27F04" stop-opacity="0.039216"/>
<stop offset="0.4671" stop-color="#C15D2F" stop-opacity="0.466667"/>
<stop offset="0.8016" stop-color="#AD4949" stop-opacity="0.8"/>
<stop offset="1" stop-color="#A64153"/>
</linearGradient>
<linearGradient id="paint30_linear_1_287" x1="235.251" y1="13.1323" x2="242.853" y2="21.6866" gradientUnits="userSpaceOnUse">
<stop stop-color="#FFFCF8"/>
<stop offset="0.1875" stop-color="#FAF8F6"/>
<stop offset="0.4041" stop-color="#ECEEF2"/>
<stop offset="0.6353" stop-color="#D5DCEA"/>
<stop offset="0.875" stop-color="#B5C4DF"/>
<stop offset="1" stop-color="#A1B5D8"/>
</linearGradient>
<linearGradient id="paint31_linear_1_287" x1="236.798" y1="18.0396" x2="234.593" y2="12.3696" gradientUnits="userSpaceOnUse">
<stop stop-color="#A1B5D8" stop-opacity="0"/>
<stop offset="0.0343" stop-color="#9FB3D5" stop-opacity="0.035294"/>
<stop offset="0.4515" stop-color="#8898AF" stop-opacity="0.45098"/>
<stop offset="0.788" stop-color="#798898" stop-opacity="0.788235"/>
<stop offset="1" stop-color="#748290"/>
</linearGradient>
<linearGradient id="paint32_linear_1_287" x1="238.48" y1="14.9534" x2="238.48" y2="16.8083" gradientUnits="userSpaceOnUse">
<stop stop-color="#FF6E3A"/>
<stop offset="0.1596" stop-color="#FF6440"/>
<stop offset="0.4266" stop-color="#FF4B52"/>
<stop offset="0.7662" stop-color="#FF216E"/>
<stop offset="1" stop-color="#FF0084"/>
</linearGradient>
<linearGradient id="paint33_linear_1_287" x1="238.025" y1="16.4373" x2="236.032" y2="14.195" gradientUnits="userSpaceOnUse">
<stop stop-color="#E58200" stop-opacity="0"/>
<stop offset="0.4384" stop-color="#C4602C" stop-opacity="0.439216"/>
<stop offset="0.7953" stop-color="#AE4948" stop-opacity="0.796078"/>
<stop offset="1" stop-color="#A64153"/>
</linearGradient>
<linearGradient id="paint34_linear_1_287" x1="234.55" y1="15.5943" x2="234.55" y2="21.9851" gradientUnits="userSpaceOnUse">
<stop stop-color="#FF6E3A"/>
<stop offset="0.1596" stop-color="#FF6440"/>
<stop offset="0.4266" stop-color="#FF4B52"/>
<stop offset="0.7662" stop-color="#FF216E"/>
<stop offset="1" stop-color="#FF0084"/>
</linearGradient>
<linearGradient id="paint35_linear_1_287" x1="235.783" y1="17.049" x2="233.916" y2="14.9494" gradientUnits="userSpaceOnUse">
<stop stop-color="#E58200" stop-opacity="0"/>
<stop offset="0.4384" stop-color="#C4602C" stop-opacity="0.439216"/>
<stop offset="0.7953" stop-color="#AE4948" stop-opacity="0.796078"/>
<stop offset="1" stop-color="#A64153"/>
</linearGradient>
<linearGradient id="paint36_linear_1_287" x1="233.562" y1="16.954" x2="232.875" y2="14.0291" gradientUnits="userSpaceOnUse">
<stop stop-color="#FF0084"/>
<stop offset="0.2338" stop-color="#FF216E"/>
<stop offset="0.5734" stop-color="#FF4B52"/>
<stop offset="0.8404" stop-color="#FF6440"/>
<stop offset="1" stop-color="#FF6E3A"/>
</linearGradient>
<linearGradient id="paint37_linear_1_287" x1="235.796" y1="17.091" x2="236.028" y2="13.5509" gradientUnits="userSpaceOnUse">
<stop stop-color="#FF0084"/>
<stop offset="0.2338" stop-color="#FF216E"/>
<stop offset="0.5734" stop-color="#FF4B52"/>
<stop offset="0.8404" stop-color="#FF6440"/>
<stop offset="1" stop-color="#FF6E3A"/>
</linearGradient>
<linearGradient id="paint38_linear_1_287" x1="233.383" y1="16.4419" x2="233.335" y2="15.347" gradientUnits="userSpaceOnUse">
<stop stop-color="#E58200" stop-opacity="0"/>
<stop offset="0.4384" stop-color="#C4602C" stop-opacity="0.439216"/>
<stop offset="0.7953" stop-color="#AE4948" stop-opacity="0.796078"/>
<stop offset="1" stop-color="#A64153"/>
</linearGradient>
<linearGradient id="paint39_linear_1_287" x1="233.094" y1="15.6296" x2="234.959" y2="13.9354" gradientUnits="userSpaceOnUse">
<stop stop-color="#E58200" stop-opacity="0"/>
<stop offset="0.4384" stop-color="#C4602C" stop-opacity="0.439216"/>
<stop offset="0.7953" stop-color="#AE4948" stop-opacity="0.796078"/>
<stop offset="1" stop-color="#A64153"/>
</linearGradient>
<linearGradient id="paint40_linear_1_287" x1="235.719" y1="16.4218" x2="235.758" y2="15.3264" gradientUnits="userSpaceOnUse">
<stop stop-color="#E58200" stop-opacity="0"/>
<stop offset="0.4384" stop-color="#C4602C" stop-opacity="0.439216"/>
<stop offset="0.7953" stop-color="#AE4948" stop-opacity="0.796078"/>
<stop offset="1" stop-color="#A64153"/>
</linearGradient>
<linearGradient id="paint41_linear_1_287" x1="235.999" y1="15.6071" x2="234.117" y2="13.9289" gradientUnits="userSpaceOnUse">
<stop stop-color="#E58200" stop-opacity="0"/>
<stop offset="0.4384" stop-color="#C4602C" stop-opacity="0.439216"/>
<stop offset="0.7953" stop-color="#AE4948" stop-opacity="0.796078"/>
<stop offset="1" stop-color="#A64153"/>
</linearGradient>
<linearGradient id="paint42_linear_1_287" x1="236.203" y1="16.3564" x2="234.803" y2="14.7815" gradientUnits="userSpaceOnUse">
<stop stop-color="#E58200" stop-opacity="0"/>
<stop offset="0.4384" stop-color="#C4602C" stop-opacity="0.439216"/>
<stop offset="0.7953" stop-color="#AE4948" stop-opacity="0.796078"/>
<stop offset="1" stop-color="#A64153"/>
</linearGradient>
<linearGradient id="paint43_linear_1_287" x1="233.96" y1="14.8587" x2="235.247" y2="16.3066" gradientUnits="userSpaceOnUse">
<stop stop-color="#FF6E3A"/>
<stop offset="0.1596" stop-color="#FF6440"/>
<stop offset="0.4266" stop-color="#FF4B52"/>
<stop offset="0.7662" stop-color="#FF216E"/>
<stop offset="1" stop-color="#FF0084"/>
</linearGradient>
<linearGradient id="paint44_linear_1_287" x1="236.472" y1="17.4293" x2="236.472" y2="18.8217" gradientUnits="userSpaceOnUse">
<stop stop-color="#45425A"/>
<stop offset="1" stop-color="#2D3251"/>
</linearGradient>
<linearGradient id="paint45_linear_1_287" x1="237.77" y1="17.4293" x2="237.77" y2="18.8217" gradientUnits="userSpaceOnUse">
<stop stop-color="#45425A"/>
<stop offset="1" stop-color="#2D3251"/>
</linearGradient>
<linearGradient id="paint46_linear_1_287" x1="239.09" y1="17.4294" x2="239.09" y2="18.8218" gradientUnits="userSpaceOnUse">
<stop stop-color="#45425A"/>
<stop offset="1" stop-color="#2D3251"/>
</linearGradient>
<linearGradient id="paint47_linear_1_287" x1="240.412" y1="17.4293" x2="240.412" y2="18.8217" gradientUnits="userSpaceOnUse">
<stop stop-color="#45425A"/>
<stop offset="1" stop-color="#2D3251"/>
</linearGradient>
<linearGradient id="paint48_linear_1_287" x1="241.686" y1="17.4293" x2="241.686" y2="18.8217" gradientUnits="userSpaceOnUse">
<stop stop-color="#45425A"/>
<stop offset="1" stop-color="#2D3251"/>
</linearGradient>
<linearGradient id="paint49_linear_1_287" x1="243.024" y1="17.4293" x2="243.024" y2="18.8217" gradientUnits="userSpaceOnUse">
<stop stop-color="#45425A"/>
<stop offset="1" stop-color="#2D3251"/>
</linearGradient>
<linearGradient id="paint50_linear_1_287" x1="244.249" y1="17.4293" x2="244.249" y2="18.8217" gradientUnits="userSpaceOnUse">
<stop stop-color="#45425A"/>
<stop offset="1" stop-color="#2D3251"/>
</linearGradient>
</defs>
</svg>
